<svg xmlns="http://www.w3.org/2000/svg" enable-background="new 0 0 64 64" viewBox="0 0 64 64" id="cctv-camera"><circle cx="10" cy="28" r="4" fill="#7e7468"></circle><path fill="#5e5045" d="M14,28c0,2.21-1.79,4-4,4c-1.96,0-3.59-1.41-3.93-3.28C6.8,29.51,7.84,30,9,30c2.21,0,4-1.79,4-4
		c0-0.25-0.02-0.49-0.07-0.72C13.59,26,14,26.95,14,28z"></path><path fill="#4eddc1" d="M49,20c-0.56,0-1,0.45-1,1s0.44,1,1,1c0.55,0,1-0.45,1-1S49.55,20,49,20z M49,7c4.97,0,9,4.03,9,9
		s-4.03,9-9,9s-9-4.03-9-9S44.03,7,49,7z"></path><path fill="#31baa0" d="M58,16c0,4.97-4.03,9-9,9c-3.85,0-7.13-2.42-8.41-5.82C42.09,20.32,43.97,21,46,21
			c0.7,0,1.38-0.08,2.03-0.23C48.01,20.84,48,20.92,48,21c0,0.55,0.45,1,1,1s1-0.45,1-1c0-0.31-0.14-0.59-0.37-0.77
			C52.79,18.84,55,15.68,55,12c0-1.12-0.21-2.19-0.59-3.18C56.59,10.45,58,13.06,58,16z"></path><path fill="#baf7eb" d="M45.554,9.63c-1.287,0-2.863,2-1.574,2C45.267,11.63,46.843,9.63,45.554,9.63z"></path><path fill="#f9e8d7" d="M17.88,31.62l0.94,0.36l-0.71,1.87l-6.19-2.34c1.24-0.68,2.08-2,2.08-3.51c0-0.91-0.31-1.75-0.82-2.43
		l5.18,1.96l-1.06,2.81C17.1,30.85,17.36,31.43,17.88,31.62z"></path><path fill="#eed9ba" d="M13.979,28.303c-0.105,1.381-0.904,2.573-2.059,3.207l6.19,2.34l0.622-1.638
		C16.773,31.333,15.017,29.986,13.979,28.303z"></path><path fill="#f9e8d7" d="M10,24c-1.2,0-2.27,0.53-3,1.36V19h6v6.36C12.27,24.53,11.2,24,10,24z"></path><path fill="#eed9ba" d="M7,22.918v2.442C7.73,24.53,8.8,24,10,24s2.27,0.53,3,1.36V19h-0.432C11.458,21.127,9.298,22.583,7,22.918z"></path><polygon fill="#9f978c" points="18 15 17 19 13 19 7 19 3 19 2 15"></polygon><polygon fill="#7e7468" points="18 15 17.5 17 2.5 17 2 15"></polygon><path fill="#b7b1ab" d="M20.57,35.84l-1.06,2.81l4.68,1.76l1.05-2.8L20.57,35.84z M49.33,53.1L16.58,40.75
		c-0.52-0.19-0.78-0.77-0.59-1.29l2.12-5.61l0.71-1.87l16.81,6.34c0.63,0.23,1.31,0.25,1.95,0.06l8.92-2.77
		c0.64-0.2,1.33-0.18,1.95,0.06l7.46,2.81l-5.29,14.04C50.42,53.03,49.84,53.29,49.33,53.1z"></path><path fill="#9f978c" d="M16.468,38.195L15.99,39.46c-0.19,0.52,0.07,1.1,0.59,1.29L49.33,53.1c0.51,0.19,1.09-0.07,1.29-0.58
		l2.7-7.165C40.815,46.557,27.983,43.077,16.468,38.195z"></path><polygon fill="#7e7468" points="19 11 19 15 18 15 2 15 1 15 1 11"></polygon><path fill="#5e5045" d="M19,11v4H1v-2h14c1.105,0,2-0.895,2-2v0H19z"></path><path fill="#7e7468" d="M62.35,35.56c0.73,0.28,0.88,1.24,0.27,1.72l-1.86,1.47c-0.82,0.66-1.93,0.83-2.92,0.46l-9.39-3.54
		c-0.62-0.24-1.31-0.26-1.95-0.06l-8.92,2.77c-0.64,0.19-1.32,0.17-1.95-0.06l-16.81-6.34l-0.94-0.36
		c-0.52-0.19-0.78-0.77-0.58-1.28l1.06-2.81l2.47-6.55c0.19-0.52,0.77-0.78,1.29-0.58L62.35,35.56z"></path><path fill="#5e5045" d="M62.62,37.28l-1.86,1.47c-0.82,0.66-1.93,0.83-2.92,0.46l-9.39-3.54c-0.62-0.24-1.31-0.26-1.95-0.06
		l-8.92,2.77c-0.64,0.19-1.32,0.17-1.95-0.06l-16.81-6.34l-0.94-0.36c-0.52-0.19-0.78-0.77-0.58-1.28l0.32-0.86
		c0.08,0.05,0.16,0.1,0.26,0.14l0.94,0.36l16.81,6.34c0.63,0.23,1.31,0.25,1.95,0.06l8.92-2.77c0.64-0.2,1.33-0.18,1.95,0.06
		l9.39,3.54c0.99,0.37,2.1,0.2,2.92-0.46l1.53-1.21l0.06,0.02C63.08,35.84,63.23,36.8,62.62,37.28z"></path><path fill="#9f978c" d="M55.91,38.48l-0.66,1.75l-6.8-2.56c-0.62-0.24-1.31-0.26-1.95-0.06l-8.92,2.77c-0.64,0.19-1.32,0.17-1.95-0.06
		l-17.47-6.59l0.66-1.75l16.81,6.34c0.63,0.23,1.31,0.25,1.95,0.06l8.92-2.77c0.64-0.2,1.33-0.18,1.95,0.06L55.91,38.48z"></path><polygon fill="#de644d" points="25.24 37.61 24.19 40.41 19.51 38.65 20.57 35.84"></polygon><path fill="#4eddc1" d="M55.91,38.48c2.55,0.99,3.48,4.93,2.03,8.78c-1.46,3.88-4.74,6.23-7.32,5.26
		C50.62,52.52,55.9,38.47,55.91,38.48z"></path><path fill="#31baa0" d="M57.94,47.26c-1.46,3.88-4.74,6.23-7.32,5.26c0,0,0.43-1.15,1.05-2.79c2.36,0.12,5-2.1,6.27-5.47
		c0.27-0.7,0.45-1.41,0.56-2.1C58.77,43.68,58.61,45.48,57.94,47.26z"></path><path fill="#baf7eb" d="M56.587,41.609c-0.643,0-0.438,1.696,0.207,1.696C57.437,43.304,57.231,41.609,56.587,41.609z"></path><path fill="#b7b1ab" d="M8.335,26.75c-0.774,0-0.775,1.203,0,1.203C9.11,27.953,9.111,26.75,8.335,26.75z"></path><path fill="#472b3c" d="M50.258,19.671C50.456,19.889,50.728,20,51,20c0.239,0,0.479-0.085,0.67-0.259
		c0.41-0.37,0.441-1.003,0.071-1.412C50.955,17.46,50.007,17,49,17c-1.006,0-1.981,0.475-2.747,1.336
		c-0.367,0.412-0.33,1.044,0.083,1.411c0.413,0.368,1.045,0.33,1.412-0.083C48.017,19.361,48.453,19,49,19
		C49.539,19,49.981,19.365,50.258,19.671z"></path><path fill="#472b3c" d="M52.246,17.657c0.362,0.416,0.995,0.459,1.411,0.097c0.416-0.363,0.459-0.995,0.097-1.411
		C52.437,14.832,50.748,14,49,14c-1.76,0-3.449,0.833-4.757,2.347c-0.361,0.417-0.315,1.049,0.103,1.41
		C44.535,17.92,44.768,18,45,18c0.28,0,0.56-0.117,0.757-0.347C46.678,16.587,47.83,16,49,16C50.489,16,51.587,16.901,52.246,17.657
		z"></path><path fill="#472b3c" d="M49,13c1.927,0,3.787,0.94,5.238,2.647c0.358,0.42,0.988,0.472,1.409,0.114s0.472-0.988,0.114-1.409
		C53.924,12.19,51.523,11,49,11c-2.498,0-4.963,1.223-6.764,3.354c-0.356,0.422-0.303,1.053,0.119,1.409
		C42.542,15.923,42.771,16,43,16c0.284,0,0.567-0.12,0.765-0.354C45.184,13.964,47.092,13,49,13z"></path><path fill="#472b3c" d="M59,16c0-5.514-4.486-10-10-10s-10,4.486-10,10s4.486,10,10,10S59,21.514,59,16z M41,16c0-4.411,3.589-8,8-8
		s8,3.589,8,8s-3.589,8-8,8S41,20.411,41,16z"></path><path fill="#472b3c" d="M13,23c0.552,0,1-0.447,1-1v-2h3c0.459,0,0.859-0.312,0.97-0.758L18.781,16H19c0.552,0,1-0.447,1-1v-4
		c0-0.553-0.448-1-1-1H1c-0.552,0-1,0.447-1,1v4c0,0.553,0.448,1,1,1h0.219l0.811,3.242C2.141,19.688,2.541,20,3,20h3v5.031
		C5.38,25.864,5,26.884,5,28c0,2.757,2.243,5,5,5c0.697,0,1.361-0.145,1.964-0.404l4.859,1.837l-1.772,4.684
		c-0.381,1.04,0.151,2.194,1.176,2.569L48.98,54.036c0.228,0.085,0.461,0.125,0.692,0.125c0.484,0,0.941-0.195,1.307-0.51
		c0.292,0.058,0.586,0.093,0.883,0.093c2.742,0,5.612-2.405,7.015-6.132c0.979-2.598,0.951-5.248,0.122-7.22
		c0.86-0.022,1.703-0.311,2.382-0.857l1.859-1.47c0.571-0.449,0.847-1.146,0.738-1.865c-0.109-0.723-0.583-1.312-1.274-1.576
		L22.479,19.467c-0.507-0.193-1.055-0.18-1.546,0.045c-0.488,0.222-0.858,0.622-1.039,1.116l-2.117,5.612l-1.423-0.539
		c-0.517-0.193-1.094,0.065-1.289,0.581c-0.196,0.517,0.064,1.094,0.581,1.29l1.425,0.54l-0.703,1.863
		c-0.195,0.5-0.182,1.045,0.039,1.535c0.221,0.491,0.622,0.864,1.114,1.044l0.01,0.004l-0.001,0.004l-3.693-1.396
		C14.553,30.301,15,29.207,15,28c0-2.757-2.243-5-5-5c-0.712,0-1.386,0.154-2,0.424V20h4v2C12,22.553,12.448,23,13,23z
		 M21.768,21.336L62,36.495l-1.867,1.476c-0.539,0.435-1.282,0.548-1.94,0.304l-1.894-0.714c-0.009-0.004-0.017-0.009-0.027-0.013
		c-0.004-0.002-0.008-0.001-0.012-0.002l-7.452-2.809c-0.826-0.319-1.752-0.347-2.604-0.081l-8.909,2.767
		c-0.436,0.129-0.893,0.115-1.312-0.037l-16.805-6.337c-0.001,0-0.002-0.001-0.003-0.002c-0.001,0-0.002,0-0.004-0.001l-0.936-0.353
		L21.768,21.336z M19.404,33.264l15.884,5.996c0.834,0.304,1.728,0.33,2.589,0.075l8.922-2.771c0.425-0.133,0.884-0.12,1.291,0.038
		c0.003,0.001,0.006,0.002,0.009,0.003l6.524,2.46l-0.973,2.582c-0.195,0.517,0.066,1.094,0.583,1.288
		c0.517,0.196,1.093-0.066,1.288-0.583l0.894-2.371c1.324,1.311,1.628,4.173,0.591,6.926c-1.044,2.774-3.164,4.719-5.016,4.819
		l2.402-6.373c0.195-0.517-0.066-1.094-0.583-1.288c-0.517-0.196-1.094,0.066-1.288,0.583l-2.835,7.517L16.926,39.813L19.404,33.264
		z M2,14v-2h16v2H2z M10,25c1.654,0,3,1.346,3,3s-1.346,3-3,3s-3-1.346-3-3S8.346,25,10,25z M3.781,18l-0.5-2h13.438l-0.5,2H3.781z"></path><path fill="#472b3c" d="M25.595 36.675l-4.67-1.771c-.248-.093-.523-.086-.766.024-.242.108-.431.31-.524.559l-1.06 2.811c-.094.248-.085.523.024.765.11.242.311.431.559.523l4.68 1.76c.114.043.233.064.352.064.141 0 .282-.03.414-.09.241-.109.43-.311.523-.559l1.05-2.8C26.37 37.445 26.11 36.87 25.595 36.675zM23.605 39.122l-2.806-1.056.353-.937 2.802 1.062L23.605 39.122zM41.378 45.822l-.94-.35c-.518-.193-1.094.072-1.286.589-.192.518.071 1.094.589 1.286l.94.35c.115.043.233.062.349.062.406 0 .788-.249.938-.651C42.16 46.591 41.896 46.015 41.378 45.822zM45.13 47.247l-.93-.359c-.515-.197-1.094.057-1.293.572s.057 1.094.572 1.293l.93.359c.119.046.24.067.36.067.401 0 .779-.243.933-.64C45.902 48.024 45.646 47.446 45.13 47.247zM48.87 48.657l-.93-.359c-.513-.199-1.094.058-1.293.572s.057 1.094.572 1.293l.93.359c.118.046.24.067.36.067.401 0 .779-.243.933-.64C49.642 49.436 49.385 48.856 48.87 48.657z"></path><circle cx="49" cy="21" r="1" fill="#472b3c"></circle></svg>