<svg xmlns="http://www.w3.org/2000/svg" width="163.839" height="163.839" fill-rule="evenodd" clip-rule="evenodd" image-rendering="optimizeQuality" shape-rendering="geometricPrecision" text-rendering="geometricPrecision" viewBox="0 0 43349 43349" id="eye-checkup-machine"><path fill="#7690c9" d="M-21992 -114079c2312,0 4474,644 6316,1762 -453,389 -739,966 -739,1610 0,1172 950,2122 2122,2122 746,0 1403,-385 1781,-968 1696,2095 2713,4762 2713,7667 0,6734 -5459,12193 -12193,12193 -6734,0 -12193,-5459 -12193,-12193 0,-6734 5459,-12193 12193,-12193zm0 5175c3876,0 7018,3142 7018,7018 0,3876 -3142,7018 -7018,7018 -3876,0 -7018,-3142 -7018,-7018 0,-3876 3142,-7018 7018,-7018z"></path><path fill="#56698f" d="M-21992-107180c2924 0 5294 2370 5294 5294 0 2924-2370 5294-5294 5294-2924 0-5294-2370-5294-5294 0-2924 2370-5294 5294-5294zm0 3172c1172 0 2122 950 2122 2122 0 1172-950 2122-2122 2122-1172 0-2122-950-2122-2122 0-1172 950-2122 2122-2122zM-14293-112208c829 0 1501 672 1501 1501 0 829-672 1501-1501 1501-829 0-1501-672-1501-1501 0-829 672-1501 1501-1501z"></path><path fill="#56698f" d="M-21992 -118095c8952,0 16209,7257 16209,16209 0,8952 -7257,16209 -16209,16209 -8952,0 -16209,-7257 -16209,-16209 0,-8952 7257,-16209 16209,-16209zm0 2252c7708,0 13956,6249 13956,13956 0,7708 -6249,13956 -13956,13956 -7708,0 -13956,-6249 -13956,-13956 0,-7708 6248,-13956 13956,-13956z"></path><path fill="#7690c9" d="M21675 9749c980,0 1896,273 2676,746 -192,165 -313,409 -313,682 0,497 403,899 899,899 316,0 594,-163 755,-410 719,887 1149,2017 1149,3248 0,2853 -2313,5166 -5166,5166 -2853,0 -5166,-2313 -5166,-5166 0,-2853 2313,-5166 5166,-5166zm0 2192c1642,0 2973,1331 2973,2973 0,1642 -1331,2973 -2973,2973 -1642,0 -2973,-1331 -2973,-2973 0,-1642 1331,-2973 2973,-2973z"></path><path fill="#56698f" d="M21675 12672c1239 0 2243 1004 2243 2243 0 1239-1004 2243-2243 2243-1239 0-2243-1004-2243-2243 0-1239 1004-2243 2243-2243zm0 1344c497 0 899 403 899 899 0 497-403 899-899 899-497 0-899-403-899-899 0-497 403-899 899-899zM24937 10541c351 0 636 285 636 636 0 351-285 636-636 636-351 0-636-285-636-636 0-351 285-636 636-636z"></path><path fill="#7690c9" d="M14529 11729l0 -1535 0 -743c0,0 0,-1683 1980,-1683l644 0 1398 0 322 0c231,0 421,189 421,421l0 0c0,231 -189,421 -421,421l-322 0 -1398 0 -594 0c0,0 -1188,-149 -1188,990l0 594 0 1584 0 223c0,231 -189,421 -421,421l0 0c-232,0 -421,-189 -421,-421l0 -272zm14292 0l0 -1535 0 -743c0,0 0,-1683 -1980,-1683l-643 0 -1398 0 -322 0c-231,0 -421,189 -421,421l0 0c0,231 189,421 421,421l322 0 1398 0 594 0c0,0 1188,-149 1188,990l0 594 0 1584 0 223c0,231 189,421 421,421l0 0c231,0 421,-189 421,-421l0 -272zm0 6371l0 1535 0 743c0,0 0,1683 -1980,1683l-643 0 -1398 0 -322 0c-231,0 -421,-189 -421,-421l0 0c0,-231 189,-421 421,-421l322 0 1398 0 594 0c0,0 1188,149 1188,-990l0 -594 0 -1584 0 -223c0,-231 189,-421 421,-421l0 0c231,0 421,189 421,421l0 272zm-14292 0l0 1535 0 743c0,0 0,1683 1980,1683l644 0 1398 0 322 0c231,0 421,-189 421,-421l0 0c0,-231 -189,-421 -421,-421l-322 0 -1398 0 -594 0c0,0 -1188,149 -1188,-990l0 -594 0 -1584 0 -223c0,-231 -189,-421 -421,-421l0 0c-232,0 -421,189 -421,421l0 272z"></path><path fill="#56698f" d="M21675 593c7910,0 14322,6412 14322,14322 0,6114 -3831,11331 -9223,13386 -790,-1412 -2775,-2414 -5099,-2414 -2324,0 -4308,1002 -5099,2414 -5392,-2055 -9223,-7273 -9223,-13386 0,-7910 6412,-14322 14322,-14322zm-5966 6374l11931 0c1090,0 1983,892 1983,1983l0 11931c0,1091 -892,1983 -1983,1983l-11931 0c-1090,0 -1983,-892 -1983,-1983l0 -11931c0,-1090 892,-1983 1983,-1983z"></path><path fill="#56698f" d="M25363 32169c2121,3674 8309,4765 8309,7048 0,2284 -3721,2699 -7816,2895l18 70 -3256 0 -13 0 -168 0 -68 0 -119 0 -110 0 -84 0 -138 0 -63 0 -152 0 -56 0 -152 0 -63 0 -138 0 -84 0 -110 0 -119 0 -68 0 -168 0 -13 0 -3256 0 18 -70c-4096,-196 -7816,-612 -7816,-2895 0,-2284 6188,-3375 8309,-7048 121,-2173 0,-371 0,-2566 0,-1485 1669,-2701 3708,-2701l0 0c2040,0 3727,1216 3708,2701 -28,2206 -164,366 -41,2566z"></path><path fill="#7690c9" d="M33278 38487c-416,1243 -5998,1887 -11610,1824l0 -1 -41 0 -41 0 0 1c-5612,63 -11194,-582 -11610,-1824 -1828,3374 5016,4355 11650,4263 6634,92 13478,-890 11650,-4263z"></path></svg>