<svg xmlns="http://www.w3.org/2000/svg" data-name="Layer 1" viewBox="0 0 168 168" id="face-recognition"><path fill="#2d4356" d="M36 38a2 2 0 0 0 2-2V24h12a2 2 0 0 0 0-4H36a2 2 0 0 0-2 2v14a2 2 0 0 0 2 2zm82-14h12v12a2 2 0 0 0 4 0V22a2 2 0 0 0-2-2h-14a2 2 0 0 0 0 4zM36 95h14a2 2 0 1 0 0-4H38V79a2 2 0 0 0-4 0v14a2 2 0 0 0 2 2zm82 0h14a2 2 0 0 0 2-2V79a2 2 0 0 0-4 0v12h-12a2 2 0 0 0 0 4zm-7-80a3 3 0 1 0-3-3 3 3 0 0 0 3 3zm0-4.5a1.5 1.5 0 1 1-1.5 1.5 1.5 1.5 0 0 1 1.5-1.5zM160 69a2 2 0 1 0 2 2 2 2 0 0 0-2-2zm0 3a1 1 0 1 1 1-1 1 1 0 0 1-1 1zM81 7a2 2 0 1 0-2-2 2 2 0 0 0 2 2zm0-3a1 1 0 1 1-1 1 1 1 0 0 1 1-1zM24 38a2 2 0 1 0-2-2 2 2 0 0 0 2 2zm0-3a1 1 0 1 1-1 1 1 1 0 0 1 1-1z"></path><circle cx="2" cy="146" r="2" fill="#2d4356"></circle><path fill="#2d4356" d="M11 144H8a2 2 0 0 0 0 4h3a2 2 0 0 0 0-4zm149 0h-3a2 2 0 0 0 0 4h3a2 2 0 0 0 0-4z"></path><circle cx="166" cy="146" r="2" fill="#2d4356"></circle><path fill="#2d4356" d="M150.721 144h-13.07a8.457 8.457 0 0 0 1.443-3.962 168.184 168.184 0 0 0 .894-18.023c-1.336-20.978-28.713-25.386-28.713-25.386a13.839 13.839 0 0 1-10.787-9.229 54.4 54.4 0 0 0 11.285-21.521A34.067 34.067 0 0 0 113 56.911a29 29 0 0 0-58 0 50.225 50.225 0 0 0 11.688 31.214c.149.17.305.331.458.5a13.631 13.631 0 0 1-10.28 8.009s-27.378 4.407-28.713 25.386c0 0-.65 4.965.733 18.041a8.479 8.479 0 0 0 1.5 3.943H17.279a2.017 2.017 0 1 0 0 4h133.442a2.017 2.017 0 1 0 0-4ZM59 56.911a24.666 24.666 0 0 1 7.638-17.922A25.018 25.018 0 0 1 109 56.911a29.949 29.949 0 0 1-1.085 7.911c-2.678 9.765-7.844 18.349-14.173 23.552A15.776 15.776 0 0 1 83.609 92 18.608 18.608 0 0 1 69.7 85.489 46.508 46.508 0 0 1 59 56.911ZM70.215 91.4A22.346 22.346 0 0 0 83.609 96a19.766 19.766 0 0 0 12.674-4.537c.393-.323.775-.661 1.155-1a19.158 19.158 0 0 0 4.29 5.808L85.1 113.457a1.632 1.632 0 0 1-1.19.543h-.01a1.614 1.614 0 0 1-1.163-.505L66.711 96a18.961 18.961 0 0 0 3.504-4.6Zm64.9 48.27a5.016 5.016 0 0 1-4.796 4.33h-92.5a5.188 5.188 0 0 1-4.959-4.364c-1.293-12.22-.748-17.077-.745-17.1l.017-.132.008-.133c1.114-17.5 25.122-21.652 25.357-21.69l.036-.006.036-.006a18 18 0 0 0 5.931-2.154l16.315 17.808a5.682 5.682 0 0 0 2.218 1.449A1.966 1.966 0 0 0 82 118v12a2 2 0 0 0 4 0v-12a2.018 2.018 0 0 0-.04-.4 5.6 5.6 0 0 0 2.04-1.389l17.014-17.587a18.1 18.1 0 0 0 5.553 1.943l.036.006h.029c.242.04 24.179 4.175 25.358 21.613a170.855 170.855 0 0 1-.879 17.487Z"></path><circle cx="36" cy="58" r="2" fill="#0bceb2"></circle><circle cx="132" cy="58" r="2" fill="#0bceb2"></circle><circle cx="84" cy="138" r="2" fill="#0bceb2"></circle><path fill="#0bceb2" d="m4.583 56.011 1.487-1.955-.939-.532-.954 2.19h-.032l-.97-2.175-.955.548 1.471 1.909v.031l-2.3-.297v1.064l2.316-.297v.031L2.22 58.436l.892.564 1.018-2.206h.03l.939 2.19.986-.563-1.502-1.878v-.031l2.362.282V55.73l-2.362.312v-.031zM51.777 11.067l-.857 1.099.514.324.586-1.27h.018l.54 1.261.568-.324-.865-1.082v-.018l1.36.163v-.613l-1.36.18v-.018l.856-1.126-.54-.306-.55 1.261h-.018l-.558-1.253-.551.316.848 1.099v.018l-1.325-.171v.613l1.334-.171v.018zM8.683 6.946l1.459-1.918-.921-.522-.936 2.148h-.032l-.951-2.133-.937.538 1.443 1.872v.031L5.552 6.67v1.043l2.271-.291v.031L6.365 9.325l.875.553.998-2.165h.03l.921 2.149.967-.552-1.473-1.842v-.031L11 7.713V6.67l-2.317.307v-.031zM160.442 23.248v-.9l-1.999.264v-.026l1.258-1.655-.794-.45-.808 1.853h-.026l-.821-1.84-.808.464 1.245 1.615v.026l-1.947-.251v.9l1.96-.252v.027l-1.258 1.615.754.477.862-1.867h.025l.795 1.853.834-.476-1.271-1.589v-.027l1.999.239zM118.154 153h-8.308a2.006 2.006 0 0 0 0 4h8.308a2.006 2.006 0 0 0 0-4zm-60 0h-8.308a2.006 2.006 0 0 0 0 4h8.308a2.006 2.006 0 0 0 0-4zM104 153H64a2 2 0 0 0 0 4h15.94v2H72a2 2 0 0 0 0 4h25a2 2 0 0 0 0-4h-8.94v-2H104a2 2 0 0 0 0-4z"></path></svg>