<svg xmlns="http://www.w3.org/2000/svg" viewBox="0 0 64 64" id="security-camera"><defs><linearGradient id="a" x1="13.593" x2="61.879" y1="-.097" y2="59.046" gradientUnits="userSpaceOnUse"><stop offset="0" stop-color="#fbb03b"></stop><stop offset=".139" stop-color="#faa339"></stop><stop offset=".397" stop-color="#f78134"></stop><stop offset=".742" stop-color="#f14a2b"></stop><stop offset="1" stop-color="#ed1c24"></stop></linearGradient></defs><path fill="url(#a)" d="M44.4,40.149c.4.314.809.626,1.229.921l1.232.866a1,1,0,0,0,1.151,0l1.231-.866A31.7,31.7,0,0,0,62.7,15.166v-3.6a1,1,0,0,0-.681-.948L47.759,5.838a1.006,1.006,0,0,0-.637,0L32.859,10.62a1,1,0,0,0-.681.948v.11H2.112a1,1,0,0,0-.774,1.632l4.877,5.966v.4H3.388a2.278,2.278,0,0,0-2.276,2.275v10.7a2.279,2.279,0,0,0,2.276,2.276H6.215v2.293a2.935,2.935,0,0,0,2.932,2.932H30.824V50.763a5.865,5.865,0,0,0,8.207,8.208H50.359v2.606a1,1,0,0,0,1,1H58.6a1,1,0,0,0,1-1V46.933a1,1,0,0,0-1-1H51.359a1,1,0,0,0-1,1v2.606h-10.1v-9.39Zm-5.149-2H24.146V34.924h14.97a31.58,31.58,0,0,0,2.967,3.225ZM34.178,12.288,47.44,7.841,60.7,12.288v2.878A29.689,29.689,0,0,1,48.1,39.433l-.657.462-.657-.462A29.689,29.689,0,0,1,34.178,15.166ZM34.2,26.3H29.027L18.639,13.678H32.178v1.488A31.615,31.615,0,0,0,34.2,26.3ZM16.048,13.678,26.436,26.3H19.152l-3.878-5.225a1,1,0,0,0-.8-.4H9.937L4.222,13.678ZM3.388,32.924a.277.277,0,0,1-.276-.276v-10.7a.276.276,0,0,1,.276-.275H6.215V32.924Zm4.827,4.293V21.722l.473.58a1,1,0,0,0,.775.367h4.506l3.878,5.224a1,1,0,0,0,.8.4H35.041a31.736,31.736,0,0,0,2.592,4.626H23.146a1,1,0,0,0-1,1v4.225h-13A.933.933,0,0,1,8.215,37.217ZM35.539,58.132a3.877,3.877,0,1,1,3.877-3.877A3.881,3.881,0,0,1,35.539,58.132Zm16.82-10.2H57.6V60.577H52.359V47.933Zm-2,9.038H40.746a5.84,5.84,0,0,0,0-5.432h9.613Zm-12.1-7.922a5.838,5.838,0,0,0-5.431,0v-8.9h5.431Zm5.157-19.417a3.568,3.568,0,0,0,5.046,0l9.658-9.659a3.569,3.569,0,0,0,0-5.045,3.655,3.655,0,0,0-5.046,0l-7.134,7.134L43.07,19.2a3.568,3.568,0,0,0-5.047,5.046Zm-3.974-9.021a1.572,1.572,0,0,1,2.218,0l3.573,3.572a1,1,0,0,0,1.414,0l7.841-7.841A1.568,1.568,0,1,1,56.7,18.559l-9.658,9.659a1.613,1.613,0,0,1-2.218,0l-5.389-5.389a1.57,1.57,0,0,1,0-2.218Z"></path></svg>