<svg xmlns="http://www.w3.org/2000/svg" width="512" height="512" id="user-relationship"><linearGradient id="a" x1="67.939" x2="184.48" y1="392.294" y2="275.754" gradientUnits="userSpaceOnUse"><stop offset="0" stop-color="#B3B3B3"></stop><stop offset=".016" stop-color="#B7B7B7"></stop><stop offset=".152" stop-color="#D1D1D1"></stop><stop offset=".302" stop-color="#E5E5E5"></stop><stop offset=".47" stop-color="#F4F4F4"></stop><stop offset=".672" stop-color="#FCFCFC"></stop><stop offset="1" stop-color="#FFF"></stop></linearGradient><path fill="url(#a)" d="M208.166 368.605H44.251v-49.008c0-26.878 21.789-48.666 48.667-48.666h66.581c26.878 0 48.667 21.788 48.667 48.666v49.008z"></path><linearGradient id="b" x1="92.321" x2="170.285" y1="243.107" y2="165.144" gradientUnits="userSpaceOnUse"><stop offset="0" stop-color="#B3B3B3"></stop><stop offset=".016" stop-color="#B7B7B7"></stop><stop offset=".152" stop-color="#D1D1D1"></stop><stop offset=".302" stop-color="#E5E5E5"></stop><stop offset=".47" stop-color="#F4F4F4"></stop><stop offset=".672" stop-color="#FCFCFC"></stop><stop offset="1" stop-color="#FFF"></stop></linearGradient><circle cx="131.303" cy="204.125" r="55.129" fill="url(#b)"></circle><path fill="#3F5EAB" d="M467.749 368.605H303.834v-49.008c0-26.878 21.789-48.666 48.667-48.666h66.581c26.878 0 48.667 21.788 48.667 48.666v49.008z"></path><circle cx="390.886" cy="204.125" r="55.129" fill="#3F5EAB"></circle><linearGradient id="c" x1="97.293" x2="1008.912" y1="435.217" y2="435.217" gradientUnits="userSpaceOnUse"><stop offset="0" stop-color="#FF7BAC"></stop><stop offset=".043" stop-color="#FA7DAE"></stop><stop offset=".092" stop-color="#EC85B2"></stop><stop offset=".145" stop-color="#D590BA"></stop><stop offset=".199" stop-color="#B5A1C4"></stop><stop offset=".255" stop-color="#8CB7D1"></stop><stop offset=".313" stop-color="#59D1E2"></stop><stop offset=".37" stop-color="#1FEFF5"></stop><stop offset=".398" stop-color="#0FF"></stop></linearGradient><path fill="url(#c)" d="M409.754 381.531c-6.459-4.252-15.14-2.465-19.392 3.994-28.103 42.685-75.338 68.168-126.354 68.168-31.121 0-60.731-9.315-85.74-26.625l40.025 4-25.534-31.186-66.799-6.658-6.658 66.799 25.533 31.188 5.025-50.574c32.035 26.595 71.92 41.057 114.147 41.057 60.465 0 116.442-30.195 149.741-80.771 4.253-6.458 2.464-15.14-3.994-19.392z"></path><linearGradient id="d" x1="430.724" x2="-480.899" y1="76.783" y2="76.783" gradientUnits="userSpaceOnUse"><stop offset="0" stop-color="#FF7BAC"></stop><stop offset=".043" stop-color="#FA7DAE"></stop><stop offset=".092" stop-color="#EC85B2"></stop><stop offset=".145" stop-color="#D590BA"></stop><stop offset=".199" stop-color="#B5A1C4"></stop><stop offset=".255" stop-color="#8CB7D1"></stop><stop offset=".313" stop-color="#59D1E2"></stop><stop offset=".37" stop-color="#1FEFF5"></stop><stop offset=".398" stop-color="#0FF"></stop></linearGradient><path fill="url(#d)" d="m383.181 20.789-5.026 50.574c-32.034-26.595-71.919-41.057-114.146-41.057-60.464 0-116.442 30.194-149.742 80.771-4.252 6.458-2.463 15.14 3.994 19.392a13.934 13.934 0 0 0 7.687 2.309c4.552 0 9.016-2.217 11.706-6.303 28.104-42.685 75.34-68.168 126.355-68.168 31.121 0 60.731 9.316 85.74 26.626l-40.025-4.001 25.533 31.187 66.8 6.657 6.658-66.799-25.534-31.188z"></path></svg>